<?xml version="1.0" encoding="UTF-8"?>
<svg version="1.1" xmlns="http://www.w3.org/2000/svg" width="1268" height="454">
<path d="M0 0 C418.44 0 836.88 0 1268 0 C1268 149.82 1268 299.64 1268 454 C849.56 454 431.12 454 0 454 C0 304.18 0 154.36 0 0 Z " fill="#FEFEFE" transform="translate(0,0)"/>
<path d="M0 0 C0.98484375 -0.02835938 1.9696875 -0.05671875 2.984375 -0.0859375 C10.83661575 1.02239313 15.7503686 5.31852882 20.8125 11.125 C21.65482178 12.06098022 21.65482178 12.06098022 22.51416016 13.01586914 C24.10625272 14.79088396 25.68155356 16.57908915 27.25 18.375 C28.31154297 19.58736328 28.31154297 19.58736328 29.39453125 20.82421875 C30.50459344 22.09966266 31.61402496 23.37565589 32.72265625 24.65234375 C43.53778957 36.85048645 57.32595176 48.05661404 73.25 52.375 C72.69344502 55.66593382 71.29028448 58.18319683 69.62133789 61.04418945 C65.78236839 67.68205717 63.01467766 74.34277225 60.8125 81.6875 C60.56604736 82.49832031 60.31959473 83.30914062 60.06567383 84.14453125 C54.70648863 102.92168352 55.55282445 123.68530313 65.05859375 140.9140625 C75.74666091 158.69272559 95.86914785 165.3206712 114.1875 172.5625 C116.03469604 173.30005908 117.88153405 174.0385154 119.72802734 174.77783203 C123.44707145 176.26622766 127.16758482 177.75085597 130.88916016 179.23291016 C135.87601329 181.22180862 140.85254298 183.23521344 145.82421875 185.26171875 C146.56040939 185.56178329 147.29660004 185.86184784 148.05509949 186.17100525 C150.82680324 187.30140473 153.59810353 188.43279095 156.36935425 189.56430054 C178.10748312 198.43426507 195.69599672 203.3162307 218.25 194.375 C219.07757813 194.06046875 219.90515625 193.7459375 220.7578125 193.421875 C238.1951652 185.31447116 249.12908511 165.18594417 256.25 148.375 C256.91 148.375 257.57 148.375 258.25 148.375 C266.00177192 167.68009774 270.66519601 185.03478913 270.5625 206.0625 C270.56200653 206.760336 270.56151306 207.458172 270.56100464 208.17715454 C270.53728904 219.15276382 269.69783342 229.65780188 267.25 240.375 C266.91328155 242.04098607 266.57842634 243.70735944 266.25 245.375 C266.95382812 245.34019531 267.65765625 245.30539062 268.3828125 245.26953125 C284.04456253 244.84016212 299.50337911 248.72097888 311.25 259.5625 C320.31682713 269.42436608 322.25 279.15401189 322.25 292.375 C311.03 292.375 299.81 292.375 288.25 292.375 C287.59 289.075 286.93 285.775 286.25 282.375 C283.54306657 278.43764228 281.74855649 276.19563808 277.625 273.9375 C271.23239942 272.87206657 264.1704413 271.90407883 258.25 275.0625 C253.69473242 278.57385209 251.07333001 281.9356419 249.25 287.375 C248.80597565 291.92830184 248.87972155 296.48967457 248.875 301.0625 C248.85050781 302.29162109 248.82601563 303.52074219 248.80078125 304.78710938 C248.77529279 312.75225237 249.20950286 320.80175583 254.7331543 327.05371094 C259.92252883 331.60053036 264.57465893 331.64535618 271.1640625 331.60546875 C275.38439538 331.29027933 278.40927005 330.12078634 282.25 328.375 C283.24 328.045 284.23 327.715 285.25 327.375 C287.81418295 322.69913698 288.19264259 317.66178706 289.25 312.375 C300.14 312.375 311.03 312.375 322.25 312.375 C322.25 326.08636032 319.83179248 336.12667631 310.47265625 346.30859375 C299.01659105 357.20239808 283.2138544 359.85168602 267.93676758 359.65820312 C254.02809393 359.2664513 242.18442534 356.77736509 230.25 349.375 C230.01925781 350.20902344 229.78851563 351.04304688 229.55078125 351.90234375 C225.37475301 366.31211709 219.8933218 375.17955211 207.48046875 383.640625 C200.58604299 387.3421063 193.78572419 387.69190967 186.125 387.7109375 C185.17866699 387.7175943 184.23233398 387.7242511 183.25732422 387.73110962 C181.26727223 387.74118214 179.27718683 387.74592832 177.28710938 387.74560547 C174.25854629 387.74998763 171.23143182 387.78638948 168.203125 387.82421875 C166.2604216 387.83008643 164.31771135 387.83405615 162.375 387.8359375 C161.47894043 387.85030853 160.58288086 387.86467957 159.65966797 387.87948608 C151.93791225 387.82388085 145.55815822 385.28446096 139.703125 380.12109375 C134.76129316 374.18292484 132.25 368.02446301 132.25 360.375 C113.77 360.375 95.29 360.375 76.25 360.375 C76.25 363.015 76.25 365.655 76.25 368.375 C73.60734653 376.51894652 67.14871134 381.77585911 60.25 386.375 C55.44454363 387.78780417 50.42041557 387.57288849 45.453125 387.61328125 C44.50491882 387.621353 43.55671265 387.62942474 42.57977295 387.63774109 C40.57598682 387.65154447 38.57217754 387.6622833 36.56835938 387.67016602 C34.52987729 387.68168195 32.49142526 387.70212757 30.453125 387.73168945 C27.49458501 387.77456337 24.53693789 387.79056215 21.578125 387.80078125 C20.22766083 387.82704338 20.22766083 387.82704338 18.84991455 387.85383606 C8.32649901 387.81820691 -1.21940991 382.7310547 -8.73046875 375.45703125 C-15.31156009 368.20239538 -20.08093045 360.46309602 -19.671875 350.4140625 C-18.97181667 340.1395164 -18.97181667 340.1395164 -23.43359375 331.42578125 C-26.38111046 329.45777205 -29.57153449 327.97870769 -32.76416016 326.453125 C-36.26883699 324.5504138 -39.15552719 321.95005246 -42.125 319.3125 C-42.71474609 318.79268555 -43.30449219 318.27287109 -43.91210938 317.73730469 C-45.53473363 316.29384902 -47.14368048 314.83654394 -48.75 313.375 C-49.49894531 312.70984375 -50.24789062 312.0446875 -51.01953125 311.359375 C-64.06105073 299.14125084 -72.80651351 282.83962486 -79.64453125 266.546875 C-81.3125805 263.26971816 -82.72610306 261.78025808 -86.16796875 260.41796875 C-87.08191406 260.13566406 -87.99585937 259.85335938 -88.9375 259.5625 C-94.42575163 257.65354291 -98.40593663 255.19223016 -102.75 251.375 C-103.35585937 250.87355469 -103.96171875 250.37210938 -104.5859375 249.85546875 C-111.40122713 243.73956474 -116.32062452 234.68873465 -116.86230469 225.46206665 C-116.93184966 223.14881061 -116.96729653 220.83764967 -116.98828125 218.5234375 C-116.996353 217.66875885 -117.00442474 216.8140802 -117.01274109 215.9335022 C-117.02654037 214.12642417 -117.03728101 212.31932054 -117.04516602 210.51220703 C-117.05665509 208.68139905 -117.07705796 206.85062376 -117.10668945 205.02001953 C-117.33654231 190.79996096 -116.55976354 179.48172747 -106.75 168.375 C-106.21375 167.75753906 -105.6775 167.14007813 -105.125 166.50390625 C-99.77748886 160.74790468 -93.87421438 156.94968296 -86.125 155.5 C-82.62712443 154.43120469 -81.82681058 153.50045728 -79.875 150.3125 C-78.30850268 147.05299385 -76.94390836 143.71169909 -75.58398438 140.36181641 C-65.47844164 116.28719498 -44.31209306 93.15604653 -20.75 81.375 C-20.74120064 80.15803688 -20.74120064 80.15803688 -20.73222351 78.91648865 C-20.6741957 71.25135312 -20.60206175 63.58653891 -20.51428509 55.92169094 C-20.46965574 51.98158776 -20.43038362 48.04158621 -20.40356445 44.10131836 C-20.37745673 40.29505106 -20.33700256 36.4891764 -20.28681374 32.68315315 C-20.27019526 31.23483241 -20.25864982 29.78644384 -20.25238609 28.33804131 C-20.17601291 12.29385004 -20.17601291 12.29385004 -15.06640625 6.44921875 C-14.48761719 5.99160156 -13.90882812 5.53398438 -13.3125 5.0625 C-12.73628906 4.59199219 -12.16007812 4.12148438 -11.56640625 3.63671875 C-7.64375049 0.91194926 -4.81883285 0.06242011 0 0 Z " fill="#28296C" transform="translate(134.75,50.625)"/>
<path d="M0 0 C1.70422119 -0.01498535 1.70422119 -0.01498535 3.44287109 -0.03027344 C10.82059602 0.04491083 17.25397415 1.11670985 24.25 3.4375 C25.40371094 3.81390625 26.55742187 4.1903125 27.74609375 4.578125 C41.09195979 9.61162561 51.25091623 16.45336254 61.25 26.4375 C61.83394531 27.00984375 62.41789063 27.5821875 63.01953125 28.171875 C72.23637587 38.02348854 77.75124723 50.60383963 81.25 63.4375 C81.49492187 64.28441406 81.73984375 65.13132812 81.9921875 66.00390625 C87.12099613 86.76504256 80.98540782 108.51922526 70.9375 126.75 C64.80012715 136.83379885 56.79604191 145.07196991 46.25 150.4375 C42.03834228 151.32786436 37.92465153 151.65609956 33.625 151.75 C31.96597656 151.80607422 31.96597656 151.80607422 30.2734375 151.86328125 C19.12692458 151.23608216 7.67919309 144.88731644 -2.5625 140.6875 C-4.16821923 140.03114776 -5.77401513 139.37498308 -7.37988281 138.71899414 C-9.89572287 137.69101099 -12.41133764 136.66249511 -14.92623901 135.63221741 C-20.22129976 133.46429553 -25.52433276 131.31739724 -30.83451843 129.1867981 C-34.37156232 127.76646484 -37.90528606 126.33798695 -41.43856812 124.9083252 C-43.12926719 124.22626843 -44.82132412 123.54756671 -46.51480103 122.87243652 C-60.58711996 117.25730345 -73.98380832 111.46492926 -81.25 97.1875 C-85.36989376 85.50531235 -83.79445166 69.88865831 -79.75 58.4375 C-79.39808594 57.37402344 -79.04617187 56.31054688 -78.68359375 55.21484375 C-74.35476531 42.99983282 -67.64748796 33.73871342 -58.75 24.4375 C-58.12480469 23.73753906 -57.49960938 23.03757812 -56.85546875 22.31640625 C-49.31951547 14.17757671 -39.16704257 8.17695118 -28.75 4.4375 C-27.780625 4.06625 -26.81125 3.695 -25.8125 3.3125 C-17.18441615 0.48876347 -9.0309496 0.04660819 0 0 Z " fill="#28296C" transform="translate(294.75,78.5625)"/>
<path d="M0 0 C32 0 32 0 39.4375 6.3125 C41.8984375 10.203125 41.8984375 10.203125 42.95996094 12.16210938 C44.51043676 14.90201125 46.51342584 17.18247572 48.5625 19.5625 C49.27535156 20.44035156 49.98820312 21.31820313 50.72265625 22.22265625 C53.28204163 25.34396501 55.88598963 28.42445484 58.5 31.5 C64.78865729 38.90261665 70.93199005 46.41498756 77 54 C77.33 36.18 77.66 18.36 78 0 C88.89 0 99.78 0 111 0 C111 36.96 111 73.92 111 112 C80 112 80 112 72.125 105.6875 C69.35546875 101.796875 69.35546875 101.796875 68.14990234 99.83789062 C66.48086399 97.17026415 64.46956755 94.83484322 62.4375 92.4375 C61.73496094 91.55964844 61.03242187 90.68179688 60.30859375 89.77734375 C57.1689439 86.00020154 53.81843737 82.44045498 50.4609375 78.85766602 C46.37707047 74.47393921 42.57430261 69.9293854 38.83984375 65.2421875 C36.89327347 62.7951842 36.89327347 62.7951842 34 60 C33.67 77.16 33.34 94.32 33 112 C22.11 112 11.22 112 0 112 C0 75.04 0 38.08 0 0 Z " fill="#292A6D" transform="translate(1151,297)"/>
<path d="M0 0 C31 0 31 0 38.875 6.8125 C41.640625 10.98046875 41.640625 10.98046875 42.84570312 13.06396484 C44.49388327 15.82836174 46.5311441 18.18818494 48.625 20.625 C49.32882812 21.49382812 50.03265625 22.36265625 50.7578125 23.2578125 C53.30253799 26.3700029 55.8962332 29.43722003 58.5 32.5 C64.78875099 39.90253257 70.93199401 47.41499252 77 55 C77.33 36.85 77.66 18.7 78 0 C88.56 0 99.12 0 110 0 C110 36.96 110 73.92 110 112 C79 112 79 112 71.625 106.1875 C69.1328125 102.57421875 69.1328125 102.57421875 68.05175781 100.73974609 C66.46089481 98.10824894 64.48528723 95.84153216 62.5 93.5 C61.43265625 92.1696875 61.43265625 92.1696875 60.34375 90.8125 C57.1889378 87.02672536 53.82986198 83.45266566 50.46118164 79.85791016 C46.37721088 75.47412017 42.57437506 70.92947633 38.83984375 66.2421875 C37.0922276 64.0229624 37.0922276 64.0229624 35.25390625 62.3203125 C34 61 34 61 34 59 C33.34 59 32.68 59 32 59 C32 76.49 32 93.98 32 112 C21.44 112 10.88 112 0 112 C0 75.04 0 38.08 0 0 Z " fill="#28296C" transform="translate(819,297)"/>
<path d="M0 0 C1.01368652 0.00749268 2.02737305 0.01498535 3.07177734 0.02270508 C19.6484246 0.26118923 35.05854843 3.71774398 47.625 15.25 C55.09647225 23.73476016 57.625 29.8214793 57.625 41.25 C46.405 41.25 35.185 41.25 23.625 41.25 C22.635 38.94 21.645 36.63 20.625 34.25 C18.7765054 32.45464289 18.7765054 32.45464289 16.625 31.375 C15.944375 30.98570312 15.26375 30.59640625 14.5625 30.1953125 C7.91242587 26.95071988 -1.0723594 27.2042193 -8.1875 28.93359375 C-14.61538508 31.55035102 -18.12628707 35.48045751 -20.98828125 41.828125 C-22.73381411 46.64712141 -22.78368992 51.17117246 -22.6875 56.25 C-22.69072266 57.10078125 -22.69394531 57.9515625 -22.69726562 58.828125 C-22.62913 66.90529387 -21.5506825 73.74342772 -16.375 80.25 C-10.01085511 86.27918989 -3.30081436 86.695049 5.13671875 86.5703125 C11.09367919 86.02331277 15.37240662 83.98276413 20.0625 80.375 C22.11041966 77.81781337 22.11041966 77.81781337 23.625 72.25 C15.375 72.25 7.125 72.25 -1.375 72.25 C-1.375 64.66 -1.375 57.07 -1.375 49.25 C18.095 49.25 37.565 49.25 57.625 49.25 C57.625 70.37 57.625 91.49 57.625 113.25 C51.355 113.25 45.085 113.25 38.625 113.25 C37.635 107.805 37.635 107.805 36.625 102.25 C35.89796875 102.70890625 35.1709375 103.1678125 34.421875 103.640625 C17.15372697 114.17862303 -2.0288761 116.88624979 -21.875 113.125 C-35.28881703 109.72031789 -45.53810783 103.12385518 -52.6875 91.125 C-58.14473609 80.05851567 -59.72772146 69.75798277 -59.8125 57.5625 C-59.82265137 56.5297998 -59.83280273 55.49709961 -59.84326172 54.43310547 C-59.68115008 40.0782343 -55.67921409 26.46938891 -45.6875 15.875 C-32.98802584 3.9775979 -16.99730424 -0.16586193 0 0 Z " fill="#292A6C" transform="translate(1008.375,295.75)"/>
<path d="M0 0 C31.68 0 63.36 0 96 0 C96 8.91 96 17.82 96 27 C76.2 27 56.4 27 36 27 C36 31.95 36 36.9 36 42 C52.83 42 69.66 42 87 42 C87 50.58 87 59.16 87 68 C70.17 68 53.34 68 36 68 C36 73.61 36 79.22 36 85 C56.13 85 76.26 85 97 85 C97 93.91 97 102.82 97 112 C64.99 112 32.98 112 0 112 C0 75.04 0 38.08 0 0 Z " fill="#28296C" transform="translate(477,297)"/>
<path d="M0 0 C31.68 0 63.36 0 96 0 C96 8.91 96 17.82 96 27 C75.87 27 55.74 27 35 27 C35 31.95 35 36.9 35 42 C52.16 42 69.32 42 87 42 C87 50.58 87 59.16 87 68 C69.84 68 52.68 68 35 68 C35 73.61 35 79.22 35 85 C55.46 85 75.92 85 97 85 C97 93.91 97 102.82 97 112 C64.99 112 32.98 112 0 112 C0 75.04 0 38.08 0 0 Z " fill="#28296C" transform="translate(702,297)"/>
<path d="M0 0 C11.55 0 23.1 0 35 0 C35 27.39 35 54.78 35 83 C53.81 83 72.62 83 92 83 C92 92.57 92 102.14 92 112 C61.64 112 31.28 112 0 112 C0 75.04 0 38.08 0 0 Z " fill="#28296C" transform="translate(594,297)"/>
<path d="M0 0 C11.88 0 23.76 0 36 0 C36 36.96 36 73.92 36 112 C24.12 112 12.24 112 0 112 C0 75.04 0 38.08 0 0 Z " fill="#2B2C6E" transform="translate(1090,297)"/>
<path d="M0 0 C9.60379018 9.36369543 9.60379018 9.36369543 9.75 17.125 C9.64482881 23.15481514 8.8473327 27.861531 4.6953125 32.41796875 C-0.92650464 37.56246179 -5.47624783 39.96319151 -13.1640625 39.74609375 C-19.77714459 38.87245916 -24.11854774 35.31852214 -28.2734375 30.31640625 C-31.97781995 24.64185861 -32.24983891 19.03418407 -31.5 12.4375 C-29.69781494 6.75036512 -25.30961066 2.76293846 -20.5 -0.5625 C-14.09802138 -2.69649287 -6.15644467 -2.7484128 0 0 Z " fill="#FCFCFD" transform="translate(146.5,191.5625)"/>
</svg>
